<svg width="36" height="36" viewBox="0 0 36 36" fill="none" xmlns="http://www.w3.org/2000/svg">
<path d="M14.0382 9.075C13.7739 8.80609 13.4452 8.60933 13.0833 8.50348C12.7215 8.39763 12.3385 8.38621 11.971 8.47031C11.6001 8.55228 11.256 8.7268 10.9708 8.97761C10.6856 9.22842 10.4685 9.54735 10.3397 9.90469L2.76004 30.7312C2.64184 31.0702 2.60594 31.4324 2.65529 31.788C2.70464 32.1436 2.83783 32.4823 3.04387 32.7763C3.24992 33.0702 3.52291 33.311 3.84032 33.4786C4.15773 33.6463 4.51047 33.7361 4.86942 33.7406C5.13242 33.741 5.3937 33.6983 5.64286 33.6141L26.4694 26.0344C26.8268 25.9056 27.1457 25.6885 27.3965 25.4033C27.6473 25.1181 27.8218 24.774 27.9038 24.4031C27.9879 24.0356 27.9765 23.6527 27.8706 23.2908C27.7648 22.9289 27.568 22.6002 27.2991 22.3359L14.0382 9.075ZM7.47098 24.3469L10.171 16.9219L19.4522 26.2031L12.0272 28.9031L7.47098 24.3469ZM20.9991 12C21.0198 11.2392 21.202 10.4914 21.5335 9.80625C22.2788 8.31563 23.685 7.5 25.4991 7.5C26.4413 7.5 27.046 7.17656 27.4257 6.4875C27.6192 6.0973 27.7294 5.67106 27.7491 5.23594C27.7491 5.08886 27.7783 4.94324 27.835 4.80753C27.8917 4.67182 27.9748 4.54872 28.0794 4.44537C28.1841 4.34203 28.3082 4.26049 28.4446 4.20549C28.5811 4.1505 28.727 4.12314 28.8741 4.125C29.1725 4.125 29.4586 4.24353 29.6696 4.4545C29.8806 4.66548 29.9991 4.95163 29.9991 5.25C29.9991 7.06406 28.8038 9.75 25.4991 9.75C24.5569 9.75 23.9522 10.0734 23.5725 10.7625C23.379 11.1527 23.2688 11.5789 23.2491 12.0141C23.2491 12.1611 23.2199 12.3068 23.1632 12.4425C23.1065 12.5782 23.0234 12.7013 22.9188 12.8046C22.8141 12.908 22.69 12.9895 22.5536 13.0445C22.4172 13.0995 22.2712 13.1269 22.1241 13.125C21.8257 13.125 21.5396 13.0065 21.3286 12.7955C21.1176 12.5845 20.9991 12.2984 20.9991 12ZM17.6241 7.5V4.125C17.6241 3.82663 17.7426 3.54048 17.9536 3.3295C18.1646 3.11853 18.4507 3 18.7491 3C19.0475 3 19.3336 3.11853 19.5446 3.3295C19.7556 3.54048 19.8741 3.82663 19.8741 4.125V7.5C19.8741 7.79837 19.7556 8.08452 19.5446 8.2955C19.3336 8.50647 19.0475 8.625 18.7491 8.625C18.4507 8.625 18.1646 8.50647 17.9536 8.2955C17.7426 8.08452 17.6241 7.79837 17.6241 7.5ZM31.9257 19.0734C32.1369 19.2867 32.2554 19.5748 32.2554 19.875C32.2554 20.1752 32.1369 20.4633 31.9257 20.6766C31.7106 20.8845 31.4232 21.0007 31.1241 21.0007C30.825 21.0007 30.5376 20.8845 30.3225 20.6766L28.0725 18.4266C27.8931 18.208 27.8015 17.9305 27.8153 17.6481C27.8292 17.3656 27.9476 17.0984 28.1476 16.8985C28.3475 16.6985 28.6147 16.5801 28.8972 16.5662C29.1796 16.5524 29.4571 16.644 29.6757 16.8234L31.9257 19.0734ZM32.6007 13.0687L29.2257 14.1937C29.1127 14.2328 28.9937 14.2519 28.8741 14.25C28.6065 14.2501 28.3477 14.1548 28.1441 13.9812C27.9404 13.8077 27.8053 13.5672 27.763 13.303C27.7207 13.0388 27.7739 12.7682 27.9131 12.5397C28.0523 12.3112 28.2684 12.1398 28.5225 12.0563L31.8975 10.9313C32.0379 10.8851 32.186 10.867 32.3333 10.8781C32.4806 10.8891 32.6243 10.9291 32.7562 10.9957C32.8881 11.0623 33.0056 11.1542 33.102 11.2662C33.1983 11.3782 33.2717 11.5081 33.3179 11.6484C33.364 11.7888 33.3821 11.9369 33.371 12.0842C33.36 12.2315 33.32 12.3752 33.2534 12.5071C33.1868 12.639 33.0949 12.7565 32.9829 12.8529C32.8709 12.9492 32.741 13.0226 32.6007 13.0687Z" fill="#1F3A63"/>
</svg>
