<svg width="14" height="14" viewBox="0 0 14 14" fill="none" xmlns="http://www.w3.org/2000/svg">
<path d="M9.00001 0C8.21077 0.00095151 7.43294 0.18849 6.72999 0.547312C6.02703 0.906134 5.41887 1.42607 4.95514 2.0647C4.4914 2.70333 4.18523 3.44255 4.0616 4.22205C3.93797 5.00154 4.00038 5.79922 4.24376 6.55L0.643758 10.1438C0.550897 10.239 0.499258 10.367 0.500008 10.5V13C0.500008 13.1326 0.552686 13.2598 0.646455 13.3536C0.740223 13.4473 0.8674 13.5 1.00001 13.5H3.50001C3.63262 13.5 3.75979 13.4473 3.85356 13.3536C3.94733 13.2598 4.00001 13.1326 4.00001 13V12H5.00001C5.13262 12 5.25979 11.9473 5.35356 11.8536C5.44733 11.7598 5.50001 11.6326 5.50001 11.5V10.5H6.50001C6.63303 10.5007 6.76101 10.4491 6.85626 10.3562L7.45001 9.75625C8.13709 9.97902 8.86428 10.0503 9.58154 9.96513C10.2988 9.87998 10.9891 9.64044 11.6049 9.26299C12.2207 8.88555 12.7475 8.37916 13.1489 7.77867C13.5503 7.17819 13.8168 6.49786 13.9302 5.78452C14.0435 5.07117 14.0009 4.34174 13.8054 3.64641C13.6099 2.95109 13.266 2.30639 12.7975 1.75667C12.3289 1.20695 11.7469 0.765268 11.0913 0.462016C10.4358 0.158764 9.7223 0.00114338 9.00001 0ZM10.25 4.75C10.0522 4.75 9.85889 4.69135 9.69444 4.58147C9.52999 4.47159 9.40182 4.31541 9.32613 4.13268C9.25044 3.94996 9.23064 3.74889 9.26922 3.55491C9.30781 3.36093 9.40305 3.18275 9.5429 3.04289C9.68275 2.90304 9.86094 2.8078 10.0549 2.76921C10.2489 2.73063 10.45 2.75043 10.6327 2.82612C10.8154 2.90181 10.9716 3.02998 11.0815 3.19443C11.1914 3.35888 11.25 3.55222 11.25 3.75C11.25 4.01522 11.1447 4.26957 10.9571 4.45711C10.7696 4.64464 10.5152 4.75 10.25 4.75Z" fill="#1F3A63"/>
</svg>
