<svg width="36" height="36" viewBox="0 0 36 36" fill="none" xmlns="http://www.w3.org/2000/svg">
<path d="M30.375 5.625H5.62502C5.02828 5.625 4.45599 5.86205 4.03403 6.28401C3.61207 6.70597 3.37502 7.27826 3.37502 7.875V29.25C3.37387 29.442 3.4225 29.631 3.51615 29.7986C3.60981 29.9662 3.74529 30.1066 3.90939 30.2063C4.07218 30.3086 4.25848 30.3675 4.4505 30.3773C4.64253 30.3872 4.83387 30.3476 5.00627 30.2625L9.00002 28.2516L12.9938 30.2625C13.1517 30.3385 13.3247 30.378 13.5 30.378C13.6753 30.378 13.8483 30.3385 14.0063 30.2625L18 28.2516L21.9938 30.2625C22.1523 30.3366 22.3251 30.375 22.5 30.375C22.675 30.375 22.8478 30.3366 23.0063 30.2625L27 28.2516L30.9938 30.2625C31.1662 30.3476 31.3575 30.3872 31.5495 30.3773C31.7416 30.3675 31.9279 30.3086 32.0906 30.2063C32.2547 30.1066 32.3902 29.9662 32.4839 29.7986C32.5775 29.631 32.6262 29.442 32.625 29.25V7.875C32.625 7.27826 32.388 6.70597 31.966 6.28401C31.5441 5.86205 30.9718 5.625 30.375 5.625ZM25.3125 20.25H10.6875C10.3892 20.25 10.103 20.1315 9.89202 19.9205C9.68105 19.7095 9.56252 19.4234 9.56252 19.125C9.56252 18.8266 9.68105 18.5405 9.89202 18.3295C10.103 18.1185 10.3892 18 10.6875 18H25.3125C25.6109 18 25.897 18.1185 26.108 18.3295C26.319 18.5405 26.4375 18.8266 26.4375 19.125C26.4375 19.4234 26.319 19.7095 26.108 19.9205C25.897 20.1315 25.6109 20.25 25.3125 20.25ZM25.3125 15.75H10.6875C10.3892 15.75 10.103 15.6315 9.89202 15.4205C9.68105 15.2095 9.56252 14.9234 9.56252 14.625C9.56252 14.3266 9.68105 14.0405 9.89202 13.8295C10.103 13.6185 10.3892 13.5 10.6875 13.5H25.3125C25.6109 13.5 25.897 13.6185 26.108 13.8295C26.319 14.0405 26.4375 14.3266 26.4375 14.625C26.4375 14.9234 26.319 15.2095 26.108 15.4205C25.897 15.6315 25.6109 15.75 25.3125 15.75Z" fill="#1F3A63"/>
</svg>
