<svg width="36" height="36" viewBox="0 0 36 36" fill="none" xmlns="http://www.w3.org/2000/svg">
<path d="M31.5 6.75V10.6875C31.5 10.9859 31.3815 11.272 31.1705 11.483C30.9595 11.694 30.6734 11.8125 30.375 11.8125C30.0766 11.8125 29.7905 11.694 29.5795 11.483C29.3685 11.272 29.25 10.9859 29.25 10.6875V6.75H25.3125C25.0141 6.75 24.728 6.63147 24.517 6.42049C24.306 6.20952 24.1875 5.92337 24.1875 5.625C24.1875 5.32663 24.306 5.04048 24.517 4.82951C24.728 4.61853 25.0141 4.5 25.3125 4.5H29.25C29.8467 4.5 30.419 4.73705 30.841 5.15901C31.2629 5.58097 31.5 6.15326 31.5 6.75ZM30.375 24.1875C30.0766 24.1875 29.7905 24.306 29.5795 24.517C29.3685 24.728 29.25 25.0141 29.25 25.3125V29.25H25.3125C25.0141 29.25 24.728 29.3685 24.517 29.5795C24.306 29.7905 24.1875 30.0766 24.1875 30.375C24.1875 30.6734 24.306 30.9595 24.517 31.1705C24.728 31.3815 25.0141 31.5 25.3125 31.5H29.25C29.8467 31.5 30.419 31.2629 30.841 30.841C31.2629 30.419 31.5 29.8467 31.5 29.25V25.3125C31.5 25.0141 31.3815 24.728 31.1705 24.517C30.9595 24.306 30.6734 24.1875 30.375 24.1875ZM10.6875 29.25H6.75V25.3125C6.75 25.0141 6.63147 24.728 6.42049 24.517C6.20952 24.306 5.92337 24.1875 5.625 24.1875C5.32663 24.1875 5.04048 24.306 4.82951 24.517C4.61853 24.728 4.5 25.0141 4.5 25.3125V29.25C4.5 29.8467 4.73705 30.419 5.15901 30.841C5.58097 31.2629 6.15326 31.5 6.75 31.5H10.6875C10.9859 31.5 11.272 31.3815 11.483 31.1705C11.694 30.9595 11.8125 30.6734 11.8125 30.375C11.8125 30.0766 11.694 29.7905 11.483 29.5795C11.272 29.3685 10.9859 29.25 10.6875 29.25ZM5.625 11.8125C5.92337 11.8125 6.20952 11.694 6.42049 11.483C6.63147 11.272 6.75 10.9859 6.75 10.6875V6.75H10.6875C10.9859 6.75 11.272 6.63147 11.483 6.42049C11.694 6.20952 11.8125 5.92337 11.8125 5.625C11.8125 5.32663 11.694 5.04048 11.483 4.82951C11.272 4.61853 10.9859 4.5 10.6875 4.5H6.75C6.15326 4.5 5.58097 4.73705 5.15901 5.15901C4.73705 5.58097 4.5 6.15326 4.5 6.75V10.6875C4.5 10.9859 4.61853 11.272 4.82951 11.483C5.04048 11.694 5.32663 11.8125 5.625 11.8125ZM14.2172 19.8984C12.2134 20.7741 10.5635 22.3001 9.53438 24.2297C9.44444 24.4001 9.40098 24.5912 9.40839 24.7838C9.4158 24.9763 9.4738 25.1635 9.57656 25.3266C9.67445 25.4933 9.81416 25.6316 9.98186 25.7278C10.1496 25.8239 10.3395 25.8747 10.5328 25.875H25.4672C25.6605 25.8747 25.8504 25.8239 26.0181 25.7278C26.1858 25.6316 26.3255 25.4933 26.4234 25.3266C26.5262 25.1635 26.5842 24.9763 26.5916 24.7838C26.599 24.5912 26.5556 24.4001 26.4656 24.2297C25.4365 22.3001 23.7866 20.7741 21.7828 19.8984C22.3647 19.3756 22.8295 18.7359 23.147 18.021C23.4644 17.3061 23.6273 16.5322 23.625 15.75C23.625 14.2582 23.0324 12.8274 21.9775 11.7725C20.9226 10.7176 19.4918 10.125 18 10.125C16.5082 10.125 15.0774 10.7176 14.0225 11.7725C12.9676 12.8274 12.375 14.2582 12.375 15.75C12.3727 16.5322 12.5356 17.3061 12.853 18.021C13.1705 18.7359 13.6353 19.3756 14.2172 19.8984Z" fill="#1F3A63"/>
</svg>
