<svg width="48" height="48" viewBox="0 0 48 48" fill="none" xmlns="http://www.w3.org/2000/svg">
<g clip-path="url(#clip0_1749_45877)">
<path d="M44.7145 15.2465C43.5767 12.5585 41.9554 10.1549 39.8932 8.0927C37.8309 6.03048 35.4132 4.39492 32.7394 3.27137C30.1225 2.16203 27.3492 1.57892 24.5047 1.50781V1.55048C36.6505 1.83492 46.4638 11.8047 46.4638 24.0216C46.4638 36.4091 36.3803 46.4927 23.9927 46.4927C11.8469 46.4927 1.91983 36.8074 1.53583 24.7469H1.49316C1.5785 27.5203 2.17583 30.2225 3.2425 32.7683C4.38028 35.4563 6.00161 37.8598 8.06383 39.922C10.1261 41.9843 12.5438 43.6198 15.2176 44.7434C17.9909 45.9238 20.9492 46.5069 23.9785 46.5069C27.0078 46.5069 29.9661 45.9096 32.7394 44.7434C35.4274 43.6056 37.8309 41.9843 39.8932 39.922C41.9554 37.8598 43.5909 35.442 44.7145 32.7683C45.8949 29.9949 46.4781 27.0367 46.4781 24.0074C46.4781 20.978 45.8807 18.0198 44.7145 15.2465Z" fill="#1F3A63"/>
<path d="M23.9647 47.9427C20.7363 47.9427 17.5932 47.3027 14.6492 46.0654C11.8047 44.8565 9.24474 43.1356 7.0403 40.9312C4.83585 38.7267 3.11496 36.1667 1.90608 33.3223C0.754075 30.6201 0.128298 27.7472 0.0429646 24.789C0.0287424 24.405 0.170965 24.0352 0.441187 23.7507C0.711409 23.4805 1.08119 23.3241 1.46519 23.3241H1.50785C2.27585 23.3241 2.90163 23.9356 2.93008 24.7036C3.29985 36.1241 12.5443 45.0698 23.979 45.0698C35.5843 45.0698 45.0279 35.6263 45.0279 24.021C45.0279 12.6716 35.7976 3.22807 24.4625 2.97207C23.6945 2.95785 23.0687 2.31785 23.0687 1.54985V1.50718C23.0687 1.12318 23.2252 0.753401 23.4954 0.483179C23.7656 0.212957 24.1354 0.0707345 24.5194 0.0849568C27.5487 0.141846 30.507 0.767623 33.2803 1.94807C36.1247 3.15696 38.6847 4.87785 40.8892 7.08229C43.0936 9.28673 44.8145 11.8467 46.0234 14.6912C47.275 17.6494 47.9007 20.7783 47.9007 24.0067C47.9007 27.2352 47.2607 30.3783 46.0234 33.3223C44.8145 36.1667 43.0936 38.7267 40.8892 40.9312C38.6847 43.1356 36.1247 44.8565 33.2803 46.0654C30.3363 47.3027 27.1932 47.9427 23.9647 47.9427Z" fill="#1F3A63"/>
<path d="M7.4668 23.9495C7.4668 26.0401 7.87924 28.0739 8.68991 29.9939C9.48635 31.8712 10.6241 33.5637 12.089 35.0428L12.1032 35.0286C5.87391 28.7566 5.95924 18.7868 12.3735 12.6144C18.8872 6.3708 29.4828 6.3708 35.9824 12.6144L35.9966 12.6001C34.4037 11.0641 32.5406 9.88369 30.4641 9.07302C28.4588 8.2908 26.3397 7.89258 24.1637 7.89258C21.9877 7.89258 19.8686 8.2908 17.8632 9.07302C15.7868 9.88369 13.9237 11.0641 12.3308 12.6001C10.7379 14.1361 9.52902 15.9139 8.68991 17.905C7.87924 19.8392 7.4668 21.873 7.4668 23.9495Z" fill="#1F3A63"/>
<path d="M12.0894 36.4648C11.7196 36.4648 11.364 36.3226 11.0796 36.0524C9.4867 34.4453 8.23514 32.5964 7.38181 30.5626C6.50003 28.4577 6.04492 26.239 6.04492 23.9635C6.04492 21.6879 6.50003 19.4693 7.38181 17.3644C8.29203 15.1884 9.64314 13.2542 11.3783 11.5759C13.1134 9.91193 15.1329 8.63193 17.38 7.75015C19.5418 6.91104 21.8458 6.48438 24.1925 6.48438C26.5391 6.48438 28.8289 6.91104 31.0049 7.75015C33.252 8.63193 35.2716 9.91193 37.0067 11.5759L37.0209 11.5902C37.2769 11.8462 37.4334 12.2017 37.4476 12.5715C37.4618 12.9697 37.2911 13.3537 37.0067 13.6239L36.9783 13.6524C36.4236 14.1786 35.556 14.1786 35.0014 13.6382C29.028 7.92082 19.3285 7.92082 13.3694 13.6382C10.5534 16.3404 8.9747 19.9528 8.93203 23.7786C8.88937 27.6044 10.3827 31.2453 13.1276 34.0044C13.3978 34.2746 13.54 34.6444 13.54 35.0284C13.54 35.4124 13.3836 35.7679 13.0991 36.0382L13.0849 36.0524C12.8005 36.3226 12.4449 36.4648 12.0894 36.4648Z" fill="#1F3A63"/>
<path d="M23.9645 35.4564C30.2876 35.4564 35.4134 30.3305 35.4134 24.0075C35.4134 17.6844 30.2876 12.5586 23.9645 12.5586C17.6415 12.5586 12.5156 17.6844 12.5156 24.0075C12.5156 30.3305 17.6415 35.4564 23.9645 35.4564Z" fill="#1F3A63"/>
</g>
<defs>
<clipPath id="clip0_1749_45877">
<rect width="48" height="48" fill="white"/>
</clipPath>
</defs>
</svg>
