<svg width="151" height="32" viewBox="0 0 151 32" fill="none" xmlns="http://www.w3.org/2000/svg">
<path d="M26.9875 10.7227C26.3052 9.10891 25.3276 7.65954 24.0828 6.41478C22.8389 5.17001 21.3895 4.19235 19.7749 3.51004C18.2006 2.844 16.5329 2.48787 14.8147 2.44849V2.4716C22.1301 2.64025 28.0294 8.64234 28.0294 15.9979C28.0294 23.4588 21.9597 29.5276 14.4997 29.5276C7.18776 29.5276 1.21307 23.6976 0.977643 16.4414H0.954529C1.00761 18.1142 1.36203 19.7373 2.01181 21.2732C2.69412 22.8869 3.67178 24.3363 4.91654 25.581C6.1613 26.8258 7.61067 27.8026 9.22441 28.4858C10.8955 29.1929 12.6702 29.5508 14.4997 29.5508C16.3292 29.5508 18.1038 29.1921 19.7749 28.4858C21.3887 27.8035 22.838 26.8258 24.0828 25.581C25.3276 24.3363 26.3044 22.8869 26.9875 21.2732C27.6947 19.6021 28.0525 17.8274 28.0525 15.9979C28.0525 14.1684 27.6947 12.3938 26.9875 10.7227Z" fill="#1F3A63"/>
<path d="M14.4997 30.4069C12.5546 30.4069 10.6678 30.0259 8.89053 29.2743C7.17492 28.5483 5.63395 27.5099 4.31042 26.1864C2.98775 24.8637 1.94845 23.3227 1.22248 21.6062C0.533328 19.9762 0.154934 18.2478 0.0984314 16.4688C0.0907265 16.2368 0.178048 16.0125 0.338994 15.8456C0.49994 15.6795 0.722525 15.5853 0.953671 15.5853H0.976785C1.43908 15.5853 1.81747 15.9517 1.83203 16.414C2.05461 23.2876 7.61838 28.6716 14.498 28.6716C21.4863 28.6716 27.1716 22.9863 27.1716 15.998C27.1716 9.16888 21.619 3.48526 14.7933 3.32774C14.3285 3.31747 13.9569 2.93736 13.9569 2.47165V2.44853C13.9569 2.21824 14.0494 1.99737 14.2146 1.83642C14.379 1.67548 14.6024 1.58815 14.8327 1.59244C16.6596 1.63353 18.4334 2.01363 20.1071 2.72077C21.8227 3.44674 23.3637 4.48518 24.6872 5.80871C26.0099 7.13137 27.0492 8.67235 27.7751 10.3888C28.5268 12.1661 28.9078 14.0529 28.9078 15.998C28.9078 17.943 28.5268 19.8298 27.7751 21.6071C27.0492 23.3227 26.0107 24.8637 24.6872 26.1872C23.3645 27.5099 21.8236 28.5492 20.1071 29.2751C18.3316 30.0259 16.4447 30.4069 14.4997 30.4069Z" fill="#1F3A63"/>
<path d="M4.56555 15.9679C4.56555 17.223 4.81382 18.4472 5.30265 19.6046C5.78035 20.7347 6.46865 21.7551 7.35043 22.6412L7.36242 22.6292C3.60844 18.8555 3.66237 12.8535 7.52593 9.14485C11.4443 5.38317 17.8213 5.38317 21.7397 9.14485L21.7405 9.14571L21.7525 9.13372L21.7517 9.13287C20.7903 8.20999 19.6696 7.49601 18.4215 7.00975C17.2152 6.53975 15.9405 6.30176 14.6332 6.30176C13.326 6.30176 12.0513 6.53975 10.845 7.00975C9.59597 7.49601 8.47534 8.20999 7.5148 9.13287C6.55426 10.0557 5.80946 11.131 5.30351 12.3304C4.81382 13.4887 4.56555 14.7129 4.56555 15.9679Z" fill="#305791"/>
<path d="M7.35039 23.4974C7.13037 23.4974 6.91121 23.4135 6.74342 23.2457C5.78373 22.2818 5.03294 21.1689 4.51329 19.9386C3.97908 18.6742 3.70856 17.3387 3.70856 15.9681C3.70856 14.5975 3.97908 13.262 4.51329 11.9975C5.06547 10.6911 5.87533 9.5191 6.92063 8.51576C7.96335 7.51498 9.17901 6.73936 10.5334 6.21201C11.8389 5.70349 13.2181 5.4458 14.6323 5.4458C16.0466 5.4458 17.4258 5.70349 18.7313 6.21201C20.0857 6.73936 21.3013 7.51413 22.344 8.51576C22.3483 8.51918 22.3518 8.52346 22.3552 8.52689C22.5127 8.68355 22.6034 8.89587 22.6077 9.11845C22.612 9.3573 22.5161 9.58759 22.3432 9.75282L22.3312 9.7648C21.9973 10.0841 21.4717 10.0798 21.1421 9.75881C17.5499 6.31474 11.7088 6.31559 8.11831 9.76224C6.42067 11.3931 5.4704 13.5624 5.44386 15.8705C5.41732 18.1759 6.31451 20.3624 7.96935 22.0258C8.13115 22.1885 8.22104 22.4093 8.21847 22.6379C8.2159 22.8665 8.12173 23.0857 7.95736 23.2449L7.94537 23.2569C7.77929 23.4178 7.56441 23.4974 7.35039 23.4974Z" fill="#305791"/>
<path d="M14.5039 22.8947C18.3119 22.8947 21.3989 19.8077 21.3989 15.9997C21.3989 12.1917 18.3119 9.10474 14.5039 9.10474C10.6959 9.10474 7.60895 12.1917 7.60895 15.9997C7.60895 19.8077 10.6959 22.8947 14.5039 22.8947Z" fill="#305791"/>
<path d="M36.6409 31.8528C36.1683 31.8528 35.7848 31.4727 35.7848 31.0045V0.994875C35.7848 0.526591 36.1683 0.146484 36.6409 0.146484C37.1135 0.146484 37.497 0.526591 37.497 0.994875V31.0045C37.497 31.4727 37.1135 31.8528 36.6409 31.8528Z" fill="#1F3A63"/>
<path d="M55.5631 14.005C56.331 14.1899 56.9466 14.3509 57.408 14.4896C57.8695 14.6283 58.5149 14.8748 59.3454 15.2275C60.1758 15.5811 60.8281 15.9732 61.3058 16.4038C61.7818 16.8344 62.2124 17.426 62.5968 18.1793C62.9812 18.9327 63.173 19.7708 63.173 20.6928C63.173 21.1851 63.1267 21.6773 63.0343 22.1687C62.9418 22.661 62.7038 23.2372 62.3194 23.8981C61.9342 24.5598 61.4351 25.136 60.8204 25.6274C60.2049 26.1196 59.3368 26.5425 58.2145 26.8961C57.0921 27.2497 55.7772 27.4269 54.2713 27.4269C52.1191 27.4269 50.2279 26.974 48.5988 26.0665C46.9688 25.1599 46.1546 24.0915 46.1546 22.8613L46.9851 21.0627C47.015 21.2168 47.0612 21.4316 47.1237 21.7082C47.1854 21.9847 47.3925 22.4692 47.7461 23.161C48.0988 23.8527 48.5226 24.4605 49.014 24.9827C49.5054 25.5058 50.2202 25.9818 51.1585 26.4124C52.0959 26.843 53.1335 27.0579 54.2713 27.0579C56.0853 27.0579 57.5458 26.6821 58.6528 25.9279C59.7597 25.1745 60.3127 24.3364 60.3127 23.4144C60.3127 22.3383 59.8898 21.5001 59.0449 20.9009C58.199 20.3016 56.8387 19.7409 54.963 19.2178C52.6875 18.5723 50.8888 18.0184 49.567 17.5578C48.0603 17.0048 46.938 16.1358 46.2 14.9519C45.4621 13.7687 45.2155 12.423 45.4621 10.9162C46.0459 6.88829 48.859 4.87476 53.9023 4.87476C54.8243 4.87476 55.701 4.9441 56.5314 5.08193C57.3618 5.22062 58.1605 5.42779 58.9293 5.70431C59.6972 5.98083 60.3127 6.38919 60.7742 6.92682C61.2356 7.4653 61.4659 8.10309 61.4659 8.84105C61.4659 9.70228 61.2656 10.3015 60.8666 10.6397C60.805 10.4865 60.7203 10.2938 60.6132 10.0636C60.5054 9.83326 60.2443 9.41035 59.8291 8.79482C59.4138 8.18014 58.9678 7.63481 58.4918 7.15796C58.015 6.68197 57.3618 6.25136 56.5314 5.86697C55.701 5.48258 54.8252 5.29082 53.9023 5.29082C52.4264 5.29082 51.1423 5.61357 50.0516 6.25906C48.9601 6.90456 48.4147 7.70501 48.4147 8.65699C48.4147 9.85638 48.7991 10.8477 49.5679 11.6319C50.3358 12.4161 51.7818 13.0693 53.9032 13.5924L55.5631 14.005Z" fill="#1F3A63"/>
<path d="M84.7107 7.91714C86.8012 10.0385 87.8465 12.7293 87.8465 15.9884C87.8465 19.2784 86.8012 22.0153 84.7107 24.1975C82.6192 26.3189 79.8985 27.3796 76.5478 27.3796C73.2578 27.3796 70.5526 26.3189 68.4303 24.1975C66.3697 22.0145 65.3406 19.2784 65.3406 15.9884C65.3406 12.7301 66.3705 10.0385 68.4303 7.91714C70.5517 5.7341 73.2647 4.64258 76.5709 4.64258C79.8754 4.64258 82.5893 5.7341 84.7107 7.91714ZM81.2983 22.7216C81.8821 20.8767 82.1895 18.6483 82.2203 16.0338C82.2502 13.2669 81.9361 10.9537 81.2751 9.09256C80.6134 7.23227 79.6837 5.99521 78.4851 5.37968C77.9321 5.07234 77.332 4.91824 76.6865 4.91824H76.6402C74.857 4.91824 73.4727 5.87964 72.4899 7.80072C71.5054 9.72265 70.9986 12.4356 70.9678 15.9413C70.9678 16.4944 70.9909 17.133 71.0371 17.8556C71.0833 18.5781 71.2058 19.5926 71.4061 20.8998C71.6055 22.2071 71.9976 23.4065 72.5824 24.4971C73.1662 25.5887 73.8888 26.3497 74.75 26.7804C75.2722 27.0569 75.8407 27.1956 76.4562 27.1956C78.7308 27.1947 80.3446 25.7042 81.2983 22.7216Z" fill="#1F3A63"/>
<path d="M109.431 7.91714C111.522 10.0385 112.567 12.7293 112.567 15.9884C112.567 19.2784 111.522 22.0153 109.431 24.1975C107.34 26.3189 104.619 27.3796 101.268 27.3796C97.9784 27.3796 95.2731 26.3189 93.1509 24.1975C91.0902 22.0145 90.0612 19.2784 90.0612 15.9884C90.0612 12.7301 91.0911 10.0385 93.1509 7.91714C95.2723 5.7341 97.9852 4.64258 101.291 4.64258C104.596 4.64258 107.31 5.7341 109.431 7.91714ZM106.018 22.7216C106.602 20.8767 106.909 18.6483 106.94 16.0338C106.97 13.2669 106.656 10.9537 105.995 9.09256C105.333 7.23227 104.403 5.99521 103.205 5.37968C102.652 5.07234 102.052 4.91824 101.406 4.91824H101.36C99.5767 4.91824 98.1924 5.87964 97.2088 7.80072C96.2243 9.72265 95.7174 12.4356 95.6866 15.9413C95.6866 16.4944 95.7097 17.133 95.756 17.8556C95.8022 18.5781 95.9246 19.5926 96.1249 20.8998C96.3244 22.2071 96.7165 23.4065 97.3012 24.4971C97.8851 25.5887 98.6076 26.3497 99.4689 26.7804C99.9911 27.0569 100.56 27.1956 101.175 27.1956C103.451 27.1947 105.065 25.7042 106.018 22.7216Z" fill="#1F3A63"/>
<path d="M126.68 4.82666C127.848 4.82666 128.831 5.14256 129.632 5.77179C130.43 6.40273 130.831 7.0859 130.831 7.82385C130.831 8.46935 130.615 8.91537 130.186 9.16107C130.155 9.10029 130.116 8.99927 130.07 8.86144C130.024 8.72275 129.893 8.49246 129.678 8.16971C129.462 7.84697 129.217 7.55504 128.94 7.29307C128.663 7.03196 128.278 6.80167 127.787 6.60135C127.295 6.40188 126.756 6.30171 126.173 6.30171C124.79 6.30171 123.567 6.92409 122.506 8.16971C121.446 9.41448 120.915 10.4837 120.915 11.3749V24.8884C120.915 26.0262 121.191 26.7795 121.745 27.1485V27.2872H121.376C119.808 27.2872 118.494 26.9182 117.433 26.1803C116.373 25.4423 115.842 24.4895 115.842 23.3209L115.795 7.54819C115.795 6.41129 115.519 5.65707 114.965 5.2881V5.14941H115.38C119.039 5.14941 120.869 6.45667 120.869 9.06947C121.607 7.71684 122.398 6.67155 123.244 5.93359C124.089 5.19564 125.234 4.82666 126.68 4.82666Z" fill="#1F3A63"/>
<path d="M149.924 24.7045C149.924 25.8423 150.2 26.5956 150.754 26.9646V27.1033H150.385C146.788 27.1033 144.943 25.9664 144.85 23.69L144.804 23.2286C144.743 23.3211 144.635 23.4589 144.482 23.6438C144.327 23.8287 143.997 24.1592 143.49 24.6352C142.982 25.112 142.459 25.5272 141.922 25.8799C141.383 26.2335 140.692 26.5648 139.847 26.8713C139.001 27.1786 138.164 27.3327 137.333 27.3327C135.427 27.3327 133.858 26.8336 132.629 25.8337C131.399 24.8346 130.784 23.4743 130.784 21.7518C130.784 20.3376 131.099 19.139 131.729 18.1545C132.359 17.1709 133.151 16.4714 134.104 16.0562C135.057 15.641 136.117 15.272 137.286 14.9493C138.455 14.6265 139.553 14.3808 140.584 14.2113C141.614 14.0427 142.528 13.7431 143.328 13.3124C144.126 12.8818 144.634 12.3288 144.85 11.6525V9.4386C144.85 8.67069 144.481 7.92417 143.743 7.20163C143.005 6.47994 141.852 6.11781 140.284 6.11781C138.439 6.11781 136.917 6.61006 135.719 7.59372C134.519 8.57823 133.766 9.66889 133.458 10.8683L132.813 10.7758C133.151 9.11586 134.181 7.717 135.903 6.57925C137.624 5.44235 139.392 4.87305 141.206 4.87305C143.819 4.87305 145.926 5.61871 147.525 7.11003C149.123 8.60134 149.923 10.2998 149.923 12.2064V24.7045H149.924ZM144.805 21.8914C144.835 16.7882 144.851 13.7901 144.851 12.8981C144.544 13.3903 143.99 13.8133 143.191 14.1668C142.392 14.5204 141.546 14.8431 140.655 15.1351C139.763 15.4278 138.886 15.7806 138.026 16.1958C137.164 16.611 136.45 17.2496 135.881 18.11C135.312 18.9712 135.028 20.0319 135.028 21.2921C135.028 22.5531 135.412 23.5907 136.181 24.4049C136.949 25.2199 137.918 25.6274 139.086 25.6274C140.132 25.6274 141.216 25.2815 142.338 24.5898C143.459 23.8972 144.281 22.9983 144.805 21.8914Z" fill="#1F3A63"/>
</svg>
