<svg width="1198" height="255" viewBox="0 0 1198 255" fill="none" xmlns="http://www.w3.org/2000/svg">
<path d="M214.416 85.4456C208.995 72.5861 201.227 61.0365 191.338 51.1172C181.455 41.198 169.94 33.4073 157.112 27.9702C144.603 22.6626 131.354 19.8247 117.703 19.5109V19.6951C175.823 21.039 222.693 68.8681 222.693 127.483C222.693 186.937 174.469 235.298 115.2 235.298C57.1065 235.298 9.6376 188.84 7.76714 131.017H7.5835C8.0052 144.347 10.8211 157.281 15.9836 169.52C21.4045 182.38 29.172 193.929 39.0617 203.848C48.9513 213.768 60.4665 221.552 73.2877 226.996C86.5646 232.631 100.664 235.482 115.2 235.482C129.735 235.482 143.835 232.624 157.112 226.996C169.933 221.558 181.448 213.768 191.338 203.848C201.227 193.929 208.988 182.38 214.416 169.52C220.034 156.204 222.877 142.061 222.877 127.483C222.877 112.904 220.034 98.7622 214.416 85.4456Z" fill="white"/>
<path d="M115.2 242.304C99.7465 242.304 84.7556 239.268 70.6353 233.279C57.0047 227.494 44.7617 219.219 34.2463 208.672C23.7377 198.132 15.4805 185.852 9.71266 172.174C4.23731 159.185 1.23097 145.411 0.782054 131.235C0.720839 129.386 1.41461 127.599 2.69333 126.269C3.97204 124.945 5.74048 124.195 7.57693 124.195H7.76058C11.4335 124.195 14.4398 127.115 14.5555 130.798C16.3239 185.572 60.528 228.476 115.186 228.476C170.708 228.476 215.878 183.171 215.878 127.483C215.878 73.0637 171.763 27.7724 117.533 26.5172C113.84 26.4285 110.888 23.4063 110.888 19.6951V19.511C110.888 17.6758 111.622 15.9158 112.935 14.6332C114.241 13.3507 116.016 12.6548 117.846 12.6889C132.361 13.0164 146.454 16.0454 159.751 21.6804C173.381 27.4654 185.624 35.7405 196.14 46.2873C206.648 56.8274 214.906 69.107 220.674 82.7851C226.645 96.9476 229.672 111.983 229.672 127.483C229.672 142.983 226.645 158.018 220.674 172.181C214.906 185.852 206.655 198.132 196.14 208.679C185.631 219.219 173.388 227.5 159.751 233.286C145.644 239.268 130.653 242.304 115.2 242.304Z" fill="white"/>
<path d="M36.2734 127.244C36.2734 137.245 38.2459 147.001 42.1297 156.224C45.925 165.229 51.3936 173.361 58.3993 180.422L58.4945 180.326C28.6692 150.255 29.0977 102.426 59.7936 72.8727C90.9249 42.8968 141.591 42.8968 172.722 72.8727L172.729 72.8795L172.824 72.784L172.817 72.7772C165.179 65.4231 156.275 59.7335 146.359 55.8586C136.775 52.1133 126.647 50.2168 116.261 50.2168C105.875 50.2168 95.7473 52.1133 86.1637 55.8586C76.2401 59.7335 67.3367 65.4231 59.7052 72.7772C52.0737 80.1313 46.1563 88.6998 42.1365 98.2574C38.2459 107.488 36.2734 117.243 36.2734 127.244Z" fill="white"/>
<path d="M58.3992 187.244C56.6512 187.244 54.9099 186.575 53.5768 185.238C45.9521 177.556 39.987 168.688 35.8584 158.885C31.6142 148.809 29.4648 138.166 29.4648 127.244C29.4648 116.322 31.6142 105.68 35.8584 95.6036C40.2455 85.1932 46.6799 75.8539 54.9847 67.8585C63.2692 59.8836 72.9276 53.7028 83.6878 49.5005C94.0604 45.4482 105.018 43.3948 116.254 43.3948C127.491 43.3948 138.448 45.4482 148.821 49.5005C159.581 53.7028 169.239 59.8768 177.524 67.8585C177.558 67.8858 177.585 67.9199 177.612 67.9472C178.864 69.1956 179.585 70.8875 179.619 72.6612C179.653 74.5646 178.891 76.3997 177.517 77.7163L177.422 77.8118C174.769 80.3564 170.593 80.3223 167.974 77.7641C139.434 50.3191 93.0265 50.3259 64.5003 77.7914C51.0126 90.7873 43.4627 108.074 43.2518 126.466C43.041 144.838 50.1692 162.262 63.3168 175.517C64.6023 176.813 65.3165 178.573 65.2961 180.394C65.2757 182.216 64.5275 183.962 63.2216 185.231L63.1264 185.327C61.8068 186.609 60.0996 187.244 58.3992 187.244Z" fill="white"/>
<path d="M115.234 182.441C145.488 182.441 170.015 157.841 170.015 127.496C170.015 97.1515 145.488 72.552 115.234 72.552C84.9793 72.552 60.4531 97.1515 60.4531 127.496C60.4531 157.841 84.9793 182.441 115.234 182.441Z" fill="white"/>
<path d="M291.112 253.827C287.357 253.827 284.31 250.798 284.31 247.066V7.92712C284.31 4.19548 287.357 1.1665 291.112 1.1665C294.866 1.1665 297.913 4.19548 297.913 7.92712V247.066C297.913 250.798 294.866 253.827 291.112 253.827Z" fill="white"/>
<path d="M441.449 111.601C447.55 113.075 452.441 114.357 456.107 115.463C459.773 116.568 464.901 118.532 471.499 121.343C478.097 124.161 483.28 127.285 487.075 130.717C490.857 134.148 494.278 138.862 497.332 144.865C500.386 150.869 501.909 157.547 501.909 164.895C501.909 168.817 501.542 172.74 500.807 176.656C500.073 180.579 498.182 185.17 495.128 190.436C492.067 195.71 488.102 200.301 483.218 204.217C478.328 208.14 471.431 211.51 462.514 214.327C453.597 217.145 443.15 218.557 431.186 218.557C414.086 218.557 399.061 214.948 386.118 207.717C373.167 200.492 366.699 191.978 366.699 182.175L373.296 167.842C373.534 169.07 373.902 170.782 374.398 172.986C374.888 175.189 376.534 179.05 379.343 184.563C382.145 190.075 385.512 194.918 389.416 199.08C393.321 203.248 399 207.041 406.455 210.473C413.902 213.904 422.146 215.616 431.186 215.616C445.598 215.616 457.202 212.622 465.996 206.611C474.791 200.608 479.185 193.929 479.185 186.582C479.185 178.007 475.825 171.328 469.112 166.553C462.392 161.777 451.584 157.309 436.681 153.14C418.602 147.997 404.312 143.583 393.81 139.913C381.839 135.506 372.922 128.581 367.059 119.146C361.196 109.718 359.237 98.9942 361.196 86.9874C365.835 54.8899 388.185 38.8445 428.254 38.8445C435.579 38.8445 442.544 39.3971 449.142 40.4954C455.74 41.6006 462.086 43.2515 468.193 45.455C474.295 47.6585 479.185 50.9126 482.851 55.1968C486.517 59.4879 488.347 64.5703 488.347 70.4509C488.347 77.3138 486.755 82.0892 483.586 84.7839C483.096 83.5628 482.423 82.0278 481.572 80.1927C480.715 78.3576 478.641 74.9875 475.342 70.0825C472.043 65.1843 468.5 60.8386 464.718 57.032C460.929 53.2389 455.74 49.8075 449.142 46.7444C442.544 43.6813 435.586 42.1532 428.254 42.1532C416.528 42.1532 406.325 44.7251 397.66 49.8689C388.988 55.0127 384.655 61.3912 384.655 68.9773C384.655 78.535 387.709 86.4348 393.817 92.6838C399.918 98.9328 411.406 104.138 428.261 108.306L441.449 111.601Z" fill="white"/>
<path d="M673.026 63.0899C689.636 79.9949 697.941 101.436 697.941 127.408C697.941 153.625 689.636 175.435 673.026 192.824C656.41 209.729 634.794 218.182 608.172 218.182C582.033 218.182 560.54 209.729 543.679 192.824C527.307 175.428 519.131 153.625 519.131 127.408C519.131 101.443 527.314 79.9949 543.679 63.0899C560.533 45.6938 582.088 36.9957 608.356 36.9957C634.61 36.9957 656.172 45.6938 673.026 63.0899ZM645.915 181.063C650.553 166.362 652.995 148.604 653.24 127.769C653.478 105.721 650.982 87.2876 645.731 72.4565C640.473 57.6323 633.087 47.7745 623.564 42.8695C619.17 40.4204 614.402 39.1924 609.274 39.1924H608.907C594.739 39.1924 583.741 46.8535 575.932 62.1621C568.11 77.4776 564.084 99.0965 563.839 127.033C563.839 131.44 564.022 136.529 564.39 142.287C564.757 148.044 565.73 156.129 567.321 166.546C568.906 176.963 572.021 186.521 576.667 195.212C581.306 203.91 587.046 209.975 593.889 213.406C598.038 215.61 602.554 216.715 607.444 216.715C625.516 216.708 638.338 204.831 645.915 181.063Z" fill="white"/>
<path d="M869.431 63.0899C886.041 79.9949 894.346 101.436 894.346 127.408C894.346 153.625 886.041 175.435 869.431 192.824C852.815 209.729 831.199 218.182 804.577 218.182C778.439 218.182 756.945 209.729 740.084 192.824C723.712 175.428 715.537 153.625 715.537 127.408C715.537 101.443 723.719 79.9949 740.084 63.0899C756.938 45.6938 778.493 36.9957 804.754 36.9957C831.016 36.9957 852.577 45.6938 869.431 63.0899ZM842.313 181.063C846.952 166.362 849.394 148.604 849.639 127.769C849.877 105.721 847.38 87.2876 842.129 72.4565C836.872 57.6323 829.485 47.7745 819.963 42.8695C815.569 40.4204 810.801 39.1924 805.672 39.1924H805.305C791.137 39.1924 780.139 46.8535 772.324 62.1621C764.502 77.4776 760.475 99.0965 760.23 127.033C760.23 131.44 760.414 136.529 760.781 142.287C761.149 148.044 762.121 156.129 763.713 166.546C765.298 176.963 768.413 186.521 773.058 195.212C777.697 203.91 783.438 209.975 790.28 213.406C794.429 215.61 798.946 216.715 803.836 216.715C821.915 216.708 834.743 204.831 842.313 181.063Z" fill="white"/>
<path d="M1006.47 38.4624C1015.75 38.4624 1023.56 40.9797 1029.92 45.9939C1036.27 51.0217 1039.45 56.4657 1039.45 62.3463C1039.45 67.4901 1037.74 71.0443 1034.32 73.0023C1034.08 72.5179 1033.77 71.7129 1033.41 70.6145C1033.04 69.5094 1032 67.6743 1030.29 65.1024C1028.58 62.5305 1026.62 60.2042 1024.43 58.1166C1022.23 56.0359 1019.17 54.2008 1015.27 52.6044C1011.36 51.0149 1007.08 50.2167 1002.44 50.2167C991.453 50.2167 981.741 55.1763 973.313 65.1024C964.886 75.0216 960.669 83.5423 960.669 90.644V198.329C960.669 207.396 962.866 213.399 967.267 216.34V217.445H964.335C951.875 217.445 941.434 214.504 933.007 208.624C924.579 202.743 920.362 195.15 920.362 185.838L919.995 60.1496C919.995 51.0899 917.798 45.0798 913.397 42.1395V41.0343H916.696C945.767 41.0343 960.302 51.4515 960.302 72.2723C966.165 61.4935 972.45 53.1638 979.17 47.2833C985.89 41.4027 994.984 38.4624 1006.47 38.4624Z" fill="white"/>
<path d="M1191.14 196.863C1191.14 205.929 1193.34 211.933 1197.74 214.873V215.978H1194.81C1166.23 215.978 1151.57 206.918 1150.84 188.779L1150.47 185.102C1149.98 185.838 1149.12 186.937 1147.91 188.41C1146.68 189.884 1144.06 192.517 1140.03 196.31C1136 200.11 1131.84 203.419 1127.57 206.229C1123.29 209.047 1117.79 211.687 1111.08 214.129C1104.36 216.578 1097.71 217.806 1091.11 217.806C1075.96 217.806 1063.5 213.829 1053.74 205.861C1043.96 197.9 1039.08 187.06 1039.08 173.334C1039.08 162.064 1041.58 152.513 1046.59 144.668C1051.59 136.829 1057.89 131.255 1065.46 127.947C1073.03 124.638 1081.45 121.698 1090.74 119.126C1100.02 116.554 1108.75 114.596 1116.94 113.245C1125.12 111.901 1132.38 109.514 1138.74 106.082C1145.08 102.651 1149.12 98.2437 1150.83 92.8543V75.2126C1150.83 69.0933 1147.9 63.1445 1142.04 57.3867C1136.17 51.6357 1127.01 48.75 1114.56 48.75C1099.9 48.75 1087.81 52.6727 1078.28 60.5112C1068.75 68.3565 1062.77 77.0477 1060.33 86.6054L1055.2 85.8686C1057.89 72.6407 1066.07 61.4935 1079.75 52.4271C1093.42 43.3674 1107.47 38.8308 1121.88 38.8308C1142.64 38.8308 1159.38 44.7728 1172.09 56.6567C1184.78 68.5407 1191.14 82.0756 1191.14 97.2682V196.863H1191.14ZM1150.48 174.446C1150.71 133.78 1150.84 109.889 1150.84 102.78C1148.4 106.703 1144 110.073 1137.66 112.891C1131.3 115.708 1124.58 118.28 1117.5 120.606C1110.41 122.939 1103.45 125.75 1096.61 129.059C1089.77 132.367 1084.09 137.457 1079.58 144.313C1075.05 151.176 1072.79 159.628 1072.79 169.67C1072.79 179.719 1075.85 187.987 1081.96 194.475C1088.06 200.97 1095.76 204.217 1105.04 204.217C1113.35 204.217 1121.96 201.461 1130.87 195.949C1139.78 190.43 1146.31 183.266 1150.48 174.446Z" fill="white"/>
</svg>
